# xmcd
#
# Track frame offsets: 
#        150
#        12990
#        36329
#        55076
#        78553
#        101045
#        114728
#        134326
#        154705
#        170764
#        202247
#        218652
#        232223
#        251175
#        267002
#        294634
#        311181
#
# Disc length: 4363 seconds
#
# Revision: 0
# Processed by: cddbd v1.5.2PL0 Copyright (c) Steve Scherf et al.
# Submitted via: ExactAudioCopyFreeDBPlugin 1.0
#
DISCID=08110911
DTITLE=Al Miller - In Between Time
DYEAR=2012
DGENRE=Blues
TTITLE0=Rockin' All Day
TTITLE1=I Need You So Bad
TTITLE2=My Baby Walked Out
TTITLE3=Old Friends
TTITLE4=In Between Times
TTITLE5=I Got It
TTITLE6=Dead Presidents
TTITLE7=A Better Day
TTITLE8=Tighten' Up On It
TTITLE9=1839
TTITLE10=Billy's Boogie
TTITLE11=Make It AlRight
TTITLE12=Bachelor Blues
TTITLE13=If You Don't Want Me
TTITLE14=Lake Michigan Waters
TTITLE15=Lawhorn Special
TTITLE16=Blizzard
EXTD=
EXTT0=
EXTT1=
EXTT2=
EXTT3=
EXTT4=
EXTT5=
EXTT6=
EXTT7=
EXTT8=
EXTT9=
EXTT10=
EXTT11=
EXTT12=
EXTT13=
EXTT14=
EXTT15=
EXTT16=
PLAYORDER=
